<svg width="48" height="48" viewBox="0 0 48 48" fill="none" xmlns="http://www.w3.org/2000/svg">
<rect width="48" height="48" rx="8" fill="#323232"/>
<path fill-rule="evenodd" clip-rule="evenodd" d="M15.1947 8.78516C13.9045 8.78516 12.8586 9.83106 12.8586 11.1213V34.5822C12.8586 37.1626 14.9504 39.2544 17.5308 39.2544V13.4574L35.1414 13.4574C35.1414 10.877 33.0496 8.78516 30.4692 8.78516L15.2014 8.78517C15.1991 8.78516 15.1969 8.78516 15.1947 8.78516Z" fill="white"/>
<path fill-rule="evenodd" clip-rule="evenodd" d="M21.5641 17.5708L21.5641 22.243L30.4693 22.243V27.1946L21.5641 27.1946L21.5641 31.8668H21.5643L21.5641 31.9068V39.2545C24.1445 39.2545 26.2363 37.1627 26.2363 34.5823V31.8668H30.4692C33.0496 31.8668 35.1415 29.775 35.1415 27.1946H35.1009C35.1277 26.9921 35.1415 26.7854 35.1415 26.5755V20.7053C35.1415 19.5189 34.257 18.539 33.1114 18.3891C32.3599 17.8729 31.4499 17.5708 30.4693 17.5708L21.5641 17.5708Z" fill="url(#paint0_linear)"/>
<defs>
<linearGradient id="paint0_linear" x1="25.3777" y1="28.4326" x2="-23.443" y2="2.77131" gradientUnits="userSpaceOnUse">
<stop stop-color="#3DF2D2"/>
<stop offset="1"/>
</linearGradient>
</defs>
</svg>
